<svg width="22" height="21" viewBox="0 0 22 21" fill="none" xmlns="http://www.w3.org/2000/svg">
<path d="M1.78707 7.27489H5.30038L10.2983 0.363745C10.3799 0.250806 10.4858 0.159139 10.6076 0.0960038C10.7293 0.0328689 10.8636 0 10.9997 0C11.1358 0 11.2701 0.0328689 11.3918 0.0960038C11.5136 0.159139 11.6195 0.250806 11.7012 0.363745L16.699 7.27489H20.2124C20.685 7.27414 21.1386 7.46782 21.4737 7.81345C21.8088 8.15909 21.9981 8.62846 22 9.11862C22.001 9.2919 21.9768 9.46435 21.9282 9.63014L19.3925 18.9022C19.2276 19.5065 18.877 20.0385 18.3939 20.4171C17.9107 20.7958 17.3216 21.0005 16.716 21H5.28339C4.67777 20.9981 4.089 20.793 3.60503 20.4154C3.12105 20.0378 2.76783 19.508 2.59813 18.9051L0.059185 9.62048C0.047472 9.57651 0.0390453 9.53166 0.0339775 9.48635L0.0049324 9.20615C0.00163651 9.17691 -1.14441e-05 9.14749 0 9.11805C0.00203133 8.62809 0.191277 8.15895 0.52626 7.81345C0.861244 7.46796 1.31464 7.27429 1.78707 7.27489ZM10.9997 2.42515L7.49243 7.27489H14.507L10.9997 2.42515ZM10.9997 16.3498C11.4079 16.3477 11.8064 16.2204 12.1448 15.9837C12.4833 15.747 12.7465 15.4117 12.9014 15.02C13.0563 14.6283 13.0958 14.1978 13.0149 13.7828C12.9341 13.3679 12.7366 12.987 12.4473 12.6884C12.1579 12.3897 11.7898 12.1867 11.3893 12.1048C10.9888 12.023 10.5739 12.066 10.197 12.2285C9.82002 12.391 9.49793 12.6656 9.27135 13.0177C9.04477 13.3699 8.92384 13.7837 8.92384 14.2071C8.92688 14.7759 9.14695 15.3204 9.53594 15.7215C9.92492 16.1226 10.4512 16.3476 10.9997 16.3475V16.3498Z" fill="white"/>
</svg>
