<svg width="21" height="22" viewBox="0 0 21 22" fill="none" xmlns="http://www.w3.org/2000/svg">
<path d="M6.63125 1.5999C7.61357 0.568166 8.98561 0 10.5 0C12.0224 0 13.399 0.564729 14.3768 1.59008C15.3652 2.62673 15.8468 4.0356 15.7337 5.55693C15.5096 8.55834 13.1618 10.9999 10.5 10.9999C7.83821 10.9999 5.49445 8.55884 5.26679 5.55791C5.1522 4.05033 5.6368 2.6444 6.63125 1.5999Z" fill="white"/>
<path d="M1.61563 21.9999H19.3844C19.6169 22.0028 19.8473 21.9553 20.0586 21.8607C20.2699 21.7662 20.4569 21.627 20.606 21.4533C20.9341 21.0717 21.0663 20.5507 20.9684 20.0238C20.5424 17.7246 19.2127 15.7933 17.1229 14.4374C15.2663 13.2338 12.9144 12.5714 10.5 12.5714C8.08557 12.5714 5.73374 13.2343 3.8771 14.4374C1.78726 15.7928 0.457632 17.7241 0.0315859 20.0233C-0.0663441 20.5502 0.0659115 21.0713 0.394027 21.4528C0.543046 21.6266 0.73002 21.7659 0.941341 21.8605C1.15266 21.9551 1.38301 22.0028 1.61563 21.9999V21.9999Z" fill="white"/>
</svg>
