<svg width="22" height="22" viewBox="0 0 22 22" fill="none" xmlns="http://www.w3.org/2000/svg">
<path fill-rule="evenodd" clip-rule="evenodd" d="M8.25634 2.75304C6.79653 2.75304 5.39651 3.33292 4.36426 4.36511C3.33202 5.3973 2.75211 6.79726 2.75211 8.257C2.75211 9.71674 3.33202 11.1167 4.36426 12.1489C5.39651 13.1811 6.79653 13.761 8.25634 13.761C9.71615 13.761 11.1162 13.1811 12.1484 12.1489C13.1807 11.1167 13.7606 9.71674 13.7606 8.257C13.7606 6.79726 13.1807 5.3973 12.1484 4.36511C11.1162 3.33292 9.71615 2.75304 8.25634 2.75304ZM1.56129e-07 8.257C-0.000165663 6.95766 0.306369 5.67662 0.894673 4.51808C1.48298 3.35953 2.33644 2.3562 3.38564 1.58967C4.43485 0.823144 5.65018 0.315072 6.93278 0.106776C8.21537 -0.10152 9.52903 -0.00415892 10.7669 0.390942C12.0048 0.786042 13.1319 1.46773 14.0566 2.38055C14.9814 3.29337 15.6776 4.41156 16.0887 5.64418C16.4997 6.87679 16.614 8.18901 16.4223 9.47414C16.2306 10.7593 15.7382 11.981 14.9853 13.0399L21.6137 19.6681C21.8644 19.9276 22.0031 20.2752 21.9999 20.636C21.9968 20.9967 21.8521 21.3419 21.597 21.597C21.3418 21.8521 20.9967 21.9968 20.6359 21.9999C20.2751 22.0031 19.9275 21.8644 19.668 21.6137L13.0409 14.987C11.8057 15.8652 10.3526 16.3866 8.84072 16.4938C7.32888 16.6011 5.81669 16.2902 4.46985 15.5951C3.123 14.9001 1.99348 13.8477 1.20505 12.5533C0.416615 11.259 -0.000294546 9.77256 1.56129e-07 8.257Z" fill="white"/>
</svg>
