<svg width="407" height="324" viewBox="0 0 407 324" fill="none" xmlns="http://www.w3.org/2000/svg">
<path d="M180 72H30M100 110H0" stroke="#E89B65" stroke-width="5"/>
<path d="M265.115 73.9798C279.965 73.9798 292.115 61.8298 292.115 46.9798C292.115 32.1298 279.965 19.9798 265.115 19.9798C250.265 19.9798 238.115 32.1298 238.115 46.9798C238.115 61.8298 250.265 73.9798 265.115 73.9798ZM216.515 261.63L230.015 202.23L258.365 229.23V310.23H285.365V208.98L257.015 181.98L265.115 141.48C282.665 161.73 309.665 175.23 339.365 175.23V148.23C313.715 148.23 292.115 134.73 281.315 115.83L267.815 94.2298C262.415 86.1298 254.315 80.7298 244.865 80.7298C240.815 80.7298 238.115 82.0798 234.065 82.0798L163.865 111.78V175.23H190.865V129.33L215.165 119.88L193.565 229.23L127.415 215.73L122.015 242.73L216.515 261.63Z" fill="#E89B65"/>
</svg>
