<svg width="264" height="212" viewBox="0 0 264 212" fill="none" xmlns="http://www.w3.org/2000/svg">
<path d="M31 212H73.3636V84.8H31V212ZM264 95.4C264 83.74 254.468 74.2 242.818 74.2H175.99L186.051 25.758L186.369 22.366C186.369 18.02 184.568 13.992 181.709 11.13L170.482 0L100.794 69.854C96.8755 73.67 94.5455 78.97 94.5455 84.8V190.8C94.5455 202.46 104.077 212 115.727 212H211.045C219.836 212 227.355 206.7 230.533 199.068L262.517 124.338C263.47 121.9 264 119.356 264 116.6V95.4Z" fill="#E89B65"/>
<path d="M3 85L2.99999 212" stroke="#E89B65" stroke-width="5"/>
</svg>
