<svg width="45" height="45" viewBox="0 0 45 45" fill="none" xmlns="http://www.w3.org/2000/svg">
<path d="M22.5 0.899902C10.5705 0.899902 0.899994 10.5704 0.899994 22.4999C0.899994 34.4294 10.5705 44.0999 22.5 44.0999C34.4295 44.0999 44.1 34.4294 44.1 22.4999C44.1 10.5704 34.4295 0.899902 22.5 0.899902ZM31.2862 18.5939C31.2952 18.7784 31.2975 18.9629 31.2975 19.1429C31.2975 24.7679 27.0202 31.2502 19.1947 31.2502C16.8824 31.254 14.6182 30.5899 12.6742 29.3377C13.005 29.3782 13.3447 29.3939 13.689 29.3939C15.6825 29.3939 17.5162 28.7167 18.972 27.5737C18.0849 27.5562 17.2253 27.2625 16.513 26.7333C15.8007 26.2042 15.2713 25.466 14.9985 24.6217C15.6356 24.7428 16.2919 24.7174 16.9177 24.5474C15.9549 24.3527 15.0889 23.8309 14.4668 23.0706C13.8447 22.3103 13.5047 21.3583 13.5045 20.3759V20.3242C14.0782 20.6414 14.7352 20.8349 15.4327 20.8574C14.53 20.2565 13.891 19.3334 13.6463 18.277C13.4017 17.2205 13.5699 16.1105 14.1165 15.1739C15.1851 16.4879 16.5178 17.5628 18.0283 18.3291C19.5387 19.0954 21.1932 19.5359 22.8847 19.6222C22.6697 18.7093 22.7623 17.7511 23.148 16.8963C23.5338 16.0415 24.1911 15.3381 25.0179 14.8955C25.8447 14.4529 26.7945 14.2958 27.7198 14.4487C28.645 14.6015 29.4938 15.0558 30.1342 15.7409C31.0864 15.5525 31.9994 15.2033 32.8342 14.7082C32.5169 15.694 31.8525 16.531 30.9645 17.0639C31.8079 16.9623 32.6314 16.7356 33.408 16.3912C32.8376 17.2459 32.119 17.9919 31.2862 18.5939Z" fill="#E89B65"/>
</svg>
