<svg width="45" height="45" viewBox="0 0 45 45" fill="none" xmlns="http://www.w3.org/2000/svg">
<path d="M22.5 0.899902C10.5705 0.899902 0.899994 10.5704 0.899994 22.4999C0.899994 34.4294 10.5705 44.0999 22.5 44.0999C34.4295 44.0999 44.1 34.4294 44.1 22.4999C44.1 10.5704 34.4295 0.899902 22.5 0.899902ZM30.807 25.2697C30.807 25.2697 32.7172 27.1552 33.1875 28.0304C33.201 28.0484 33.2077 28.0664 33.2122 28.0754C33.4035 28.3972 33.4485 28.6469 33.354 28.8337C33.1965 29.1442 32.6565 29.2972 32.472 29.3107H29.097C28.863 29.3107 28.3725 29.2499 27.7785 28.8404C27.3217 28.5209 26.8717 27.9967 26.433 27.4859C25.7782 26.7254 25.2112 26.0684 24.6397 26.0684C24.5672 26.0683 24.495 26.0797 24.426 26.1022C23.994 26.2417 23.4405 26.8582 23.4405 28.5007C23.4405 29.0137 23.0355 29.3084 22.7497 29.3084H21.204C20.6775 29.3084 17.9347 29.1239 15.5047 26.5612C12.5302 23.4224 9.85274 17.1269 9.83024 17.0684C9.66149 16.6612 10.0102 16.4429 10.3905 16.4429H13.7992C14.2537 16.4429 14.4022 16.7197 14.5057 16.9649C14.6272 17.2507 15.0727 18.3869 15.804 19.6649C16.9897 21.7484 17.7165 22.5944 18.2992 22.5944C18.4085 22.5931 18.5158 22.5653 18.612 22.5134C19.3725 22.0904 19.2307 19.3792 19.197 18.8167C19.197 18.7109 19.1947 17.6039 18.8055 17.0729C18.5265 16.6882 18.0517 16.5419 17.7637 16.4879C17.8803 16.3271 18.0339 16.1966 18.2115 16.1077C18.7335 15.8467 19.674 15.8084 20.6077 15.8084H21.1275C22.14 15.8219 22.401 15.8872 22.7677 15.9794C23.5102 16.1572 23.526 16.6364 23.4607 18.2767C23.4405 18.7424 23.4202 19.2689 23.4202 19.8899C23.4202 20.0249 23.4135 20.1689 23.4135 20.3219C23.391 21.1567 23.364 22.1039 23.9535 22.4932C24.0304 22.5414 24.1192 22.5671 24.21 22.5674C24.4147 22.5674 25.0312 22.5674 26.7007 19.7032C27.2156 18.7812 27.663 17.8232 28.0395 16.8367C28.0732 16.7782 28.1722 16.5982 28.2892 16.5284C28.3756 16.4844 28.4713 16.462 28.5682 16.4632H32.5755C33.012 16.4632 33.3112 16.5284 33.3675 16.6972C33.4665 16.9649 33.3495 17.7817 31.5202 20.2589L30.7035 21.3367C29.0452 23.5102 29.0452 23.6204 30.807 25.2697Z" fill="#E89B65"/>
</svg>
