<svg width="289" height="204" viewBox="0 0 289 204" fill="none" xmlns="http://www.w3.org/2000/svg">
<path d="M277.737 170V181.333C277.737 193.8 267.6 204 255.211 204H97.5263C85.0242 204 75 193.8 75 181.333V22.6667C75 10.2 85.0242 0 97.5263 0H255.211C267.6 0 277.737 10.2 277.737 22.6667V34H176.368C163.866 34 153.842 44.2 153.842 56.6667V147.333C153.842 159.8 163.866 170 176.368 170H277.737ZM176.368 147.333H289V56.6667H176.368V147.333ZM221.421 119C212.073 119 204.526 111.407 204.526 102C204.526 92.5933 212.073 85 221.421 85C230.769 85 238.316 92.5933 238.316 102C238.316 111.407 230.769 119 221.421 119Z" fill="#E89B65"/>
<path d="M45 58V204M3 120.571V204" stroke="#E89B65" stroke-width="5"/>
</svg>
