<svg width="154" height="176" viewBox="0 0 154 176" fill="none" xmlns="http://www.w3.org/2000/svg">
<path d="M12 174H142" stroke="#E89B65" stroke-width="3"/>
<path d="M82.6722 16.247C80.452 12.0505 73.5477 12.0505 71.3275 16.247L13.5775 125.33C13.0576 126.308 12.7999 127.404 12.8294 128.511C12.859 129.618 13.1747 130.698 13.7459 131.647C14.3172 132.595 15.1244 133.38 16.089 133.924C17.0535 134.467 18.1425 134.752 19.2498 134.75H134.75C135.856 134.752 136.945 134.468 137.909 133.924C138.872 133.381 139.679 132.597 140.25 131.649C140.82 130.701 141.136 129.621 141.165 128.515C141.194 127.408 140.936 126.314 140.416 125.337L82.6722 16.247ZM83.4165 115.5H70.5832V102.667H83.4165V115.5ZM70.5832 89.8334V57.75H83.4165L83.4229 89.8334H70.5832Z" fill="#E89B65"/>
</svg>
