<svg width="45" height="45" viewBox="0 0 45 45" fill="none" xmlns="http://www.w3.org/2000/svg">
<path d="M26.1067 22.1242L21.0532 19.7662C20.6122 19.5614 20.25 19.7909 20.25 20.2792V24.7207C20.25 25.2089 20.6122 25.4384 21.0532 25.2337L26.1045 22.8757C26.5477 22.6687 26.5477 22.3312 26.1067 22.1242ZM22.5 0.899902C10.5705 0.899902 0.899994 10.5704 0.899994 22.4999C0.899994 34.4294 10.5705 44.0999 22.5 44.0999C34.4295 44.0999 44.1 34.4294 44.1 22.4999C44.1 10.5704 34.4295 0.899902 22.5 0.899902ZM22.5 31.2749C11.4435 31.2749 11.25 30.2782 11.25 22.4999C11.25 14.7217 11.4435 13.7249 22.5 13.7249C33.5565 13.7249 33.75 14.7217 33.75 22.4999C33.75 30.2782 33.5565 31.2749 22.5 31.2749Z" fill="#E89B65"/>
</svg>
